<?xml version="1.0" encoding="UTF-8" standalone="no"?>
<!-- Created with Inkscape (http://www.inkscape.org/) -->

<svg
   xmlns:dc="http://purl.org/dc/elements/1.1/"
   xmlns:cc="http://creativecommons.org/ns#"
   xmlns:rdf="http://www.w3.org/1999/02/22-rdf-syntax-ns#"
   xmlns:svg="http://www.w3.org/2000/svg"
   xmlns="http://www.w3.org/2000/svg"
   xmlns:sodipodi="http://sodipodi.sourceforge.net/DTD/sodipodi-0.dtd"
   xmlns:inkscape="http://www.inkscape.org/namespaces/inkscape"
   width="210mm"
   height="297mm"
   id="svg3273"
   version="1.1"
   inkscape:version="0.48.4 r9939"
   sodipodi:docname="HD_Logo_small.svg">
  <defs
     id="defs3275" />
  <sodipodi:namedview
     id="base"
     pagecolor="#ffffff"
     bordercolor="#666666"
     borderopacity="1.0"
     inkscape:pageopacity="0.0"
     inkscape:pageshadow="2"
     inkscape:zoom="6.0962963"
     inkscape:cx="204.5"
     inkscape:cy="557.5"
     inkscape:document-units="px"
     inkscape:current-layer="layer1"
     showgrid="false"
     inkscape:window-width="1366"
     inkscape:window-height="705"
     inkscape:window-x="-8"
     inkscape:window-y="-8"
     inkscape:window-maximized="1" />
  <metadata
     id="metadata3278">
    <rdf:RDF>
      <cc:Work
         rdf:about="">
        <dc:format>image/svg+xml</dc:format>
        <dc:type
           rdf:resource="http://purl.org/dc/dcmitype/StillImage" />
        <dc:title></dc:title>
      </cc:Work>
    </rdf:RDF>
  </metadata>
  <g
     inkscape:label="Ebene 1"
     inkscape:groupmode="layer"
     id="layer1">
    <path
       id="path3035"
       style="fill:#c44c4c;fill-opacity:1;fill-rule:nonzero;stroke:none"
       d="m 203.83848,494.77116 c 0,0 2.13992,-3.30986 2.13992,-3.30986 0,0 2.3401,-1.23678 2.3401,-1.23678 0,0 -1.94658,3.57315 -1.94658,3.57315 0,0 -2.53344,0.97349 -2.53344,0.97349 z m -3.64328,5.42008 c 0,0 -1.76323,0.0702 -1.76323,0.0702 0,0 3.19639,-4.44692 3.19639,-4.44692 0,0 1.86654,-0.69335 1.86654,-0.69335 0,0 -3.2997,5.07007 -3.2997,5.07007 z m -0.11005,-3.80342 c 0,0 1.42664,-0.52979 1.42664,-0.52979 0,0 -3.1867,4.40976 -3.1867,4.40976 0,0 -1.27347,0.0502 -1.27347,0.0502 0,0 3.03353,-3.93015 3.03353,-3.93015 z m 6.11002,-2.2665 c 0,0 -3.25022,5.96003 -3.25022,5.96003 0,0 -2.59983,0.1064 -2.59983,0.1064 0,0 3.30652,-5.12311 3.30652,-5.12311 0,0 2.54353,-0.94332 2.54353,-0.94332 z m 1.20622,5.78312 c 0,0 -4.22292,0.16643 -4.22292,0.16643 0,0 3.23332,-6.02959 3.23332,-6.02959 0,0 3.66995,-1.36002 3.66995,-1.36002 0,0 -2.68035,7.22318 -2.68035,7.22318 z m -3.3895,-7.40676 c 0,0 1.81644,-0.95634 1.81644,-0.95634 0,0 -2.1466,3.28985 -2.1466,3.28985 0,0 -1.86328,0.72003 -1.86328,0.72003 0,0 2.19344,-3.05354 2.19344,-3.05354 z m -1.43013,0.65365 c 0,0 1.64008,-2.12357 1.64008,-2.12357 0,0 1.41004,-0.86978 1.41004,-0.86978 0,0 -1.60021,2.21646 -1.60021,2.21646 0,0 -1.44991,0.77689 -1.44991,0.77689 z m -0.13689,0.1731 c 0,0 1.45006,-0.76323 1.45006,-0.76323 0,0 -2.1932,3.03671 -2.1932,3.03671 0,0 -1.43331,0.55011 -1.43331,0.55011 0,0 2.17645,-2.82359 2.17645,-2.82359 z m 3.15692,-4.0865 c 0,0 1.35335,-0.90679 1.35335,-0.90679 0,0 -1.22345,1.6901 -1.22345,1.6901 0,0 -1.40679,0.86995 -1.40679,0.86995 0,0 1.27689,-1.65326 1.27689,-1.65326 z m 1.42974,-1.01685 c 0,0 -1.34954,0.91013 -1.34954,0.91013 0,0 1.02621,-1.3266 1.02621,-1.3266 0,0 1.28681,-0.91345 1.28681,-0.91345 0,0 -0.96348,1.32992 -0.96348,1.32992 z m -1.2865,1.86686 c 0,0 1.71703,-1.05329 1.71703,-1.05329 0,0 -1.50383,2.30977 -1.50383,2.30977 -0.60315,0.32365 -1.20646,0.64698 -1.8096,0.97 0,0 1.5964,-2.22648 1.5964,-2.22648 z m 2.92364,-2.90664 c 0,0 -1.11355,1.70987 -1.11355,1.70987 0,0 -1.71004,1.06012 -1.71004,1.06012 0,0 1.21678,-1.69336 1.21678,-1.69336 0,0 1.60681,-1.07663 1.60681,-1.07663 z m 3.99638,-1.45674 c 0,0 -2.68638,1.66668 -2.68638,1.66668 0,0 0.90965,-1.69662 0.90965,-1.69662 0,0 2.38321,-1.59664 2.38321,-1.59664 0,0 -0.60648,1.62658 -0.60648,1.62658 z m -2.25665,6.83664 c 0,0 5.76343,-2.13667 5.76343,-2.13667 0,0 -0.3165,9.13688 -0.3165,9.13688 0,0 -8.05025,0.32651 -8.05025,0.32651 0,0 2.60332,-7.32672 2.60332,-7.32672 z m 1.23981,-4.08991 c 0,0 -1.42974,3.84313 -1.42974,3.84313 0,0 -3.63025,1.40004 -3.63025,1.40004 0,0 1.92689,-3.58999 1.92689,-3.58999 0,0 3.1331,-1.65318 3.1331,-1.65318 z m -1.10959,3.71989 c 0,0 1.37654,-3.86004 1.37654,-3.86004 1.47008,-0.77649 2.94032,-1.55329 4.40992,-2.32986 0,0 -0.13674,4.01671 -0.13674,4.01671 0,0 -5.64972,2.17319 -5.64972,2.17319 z m -2.94031,-3.24323 c 0,0 2.13024,-1.30667 2.13024,-1.30667 0,0 -1.29682,2.37996 -1.29682,2.37996 0,0 -2.32668,1.24314 -2.32668,1.24314 0,0 1.49326,-2.31643 1.49326,-2.31643 z m 1.02669,0.96657 c 0,0 1.27681,-2.37988 1.27681,-2.37988 0,0 2.71322,-1.67009 2.71322,-1.67009 0,0 -0.88678,2.38996 -0.88678,2.38996 0,0 -3.10325,1.66001 -3.10325,1.66001 z m 0.17024,-2.81668 c 0,0 1.93649,-1.29983 1.93649,-1.29983 0,0 -0.92298,1.69987 -0.92298,1.69987 0,0 -2.11706,1.31008 -2.11706,1.31008 0,0 1.10355,-1.71012 1.10355,-1.71012 z m 0.07,-0.11005 c 0,0 0.84962,-1.31333 0.84962,-1.31333 0,0 1.77007,-1.25331 1.77007,-1.25331 0,0 -0.6932,1.27006 -0.6932,1.27006 0,0 -1.92649,1.29658 -1.92649,1.29658 z m -0.77005,-0.16643 c 0.50008,-0.35692 0.99969,-0.70995 1.50343,-1.06369 0,0 -0.86026,1.31691 -0.86026,1.31691 0,0 -1.59982,1.07655 -1.59982,1.07655 0,0 0.95665,-1.32977 0.95665,-1.32977 z m 5.65004,-4.00345 c 0,0 -0.43688,1.1801 -0.43688,1.1801 0,0 -2.36337,1.5899 -2.36337,1.5899 0,0 0.68017,-1.26681 0.68017,-1.26681 0,0 2.12008,-1.50319 2.12008,-1.50319 z m 2.66652,0.71321 c 0,0 -0.0799,2.26022 -0.0799,2.26022 0,0 -4.34338,2.32334 -4.34338,2.32334 0,0 0.84962,-2.38671 0.84962,-2.38671 0,0 3.57363,-2.19685 3.57363,-2.19685 z m 0.0532,-1.57331 c 0,0 -0.0495,1.44666 -0.0495,1.44666 0,0 -3.52727,2.18344 -3.52727,2.18344 0,0 0.57695,-1.61674 0.57695,-1.61674 0,0 2.99987,-2.01336 2.99987,-2.01336 z m 0.0369,-1.08989 c 0,0 -0.0369,1.00676 -0.0369,1.00676 0,0 -2.96667,1.99652 -2.96667,1.99652 0,0 0.41687,-1.17334 0.41687,-1.17334 0,0 2.58665,-1.82994 2.58665,-1.82994 z m -19.79006,19.7899 c 0,0 20.00016,0 20.00016,0 0,0 0,-20 0,-20 0,0 -10.0235,7.12011 -10.0235,7.12011 0,0 -9.97666,12.87989 -9.97666,12.87989"
       inkscape:connector-curvature="0"
       inkscape:export-filename="D:\AptanaStudio3Workspace\GIScene\art\GIScience-Logo_small.png"
       inkscape:export-xdpi="90"
       inkscape:export-ydpi="90" />
    <g
       id="g3296"
       transform="matrix(0.29230394,0,0,0.29629971,124.1008,363.77403)"
       style="fill:#8d1313;fill-opacity:1;stroke:#8d1313;stroke-width:0.4420554;stroke-opacity:1"
       inkscape:export-filename="D:\AptanaStudio3Workspace\GIScene\art\GIScience-Logo_small.png"
       inkscape:export-xdpi="90"
       inkscape:export-ydpi="90">
      <text
         style="font-size:15px;fill:#8d1313;fill-opacity:1;stroke:#8d1313;stroke-width:0.4420554;stroke-opacity:1"
         y="443.03882"
         x="194.57346"
         id="text3039">
        <tspan
           id="tspan3041"
           sodipodi:role="line"
           y="443.03882"
           x="194.57346 224.99344"
           style="font-size:45px;font-variant:normal;font-weight:normal;writing-mode:lr-tb;fill:#8d1313;fill-opacity:1;fill-rule:nonzero;stroke:#8d1313;stroke-width:0.4420554;stroke-opacity:1;font-family:Trebuchet MS;-inkscape-font-specification:TrebuchetMS">GI</tspan>
      </text>
      <text
         style="font-size:15px;fill:#8d1313;fill-opacity:1;stroke:#8d1313;stroke-width:0.4420554;stroke-opacity:1"
         y="443.03882"
         x="237.53"
         id="text3043">
        <tspan
           id="tspan3045"
           sodipodi:role="line"
           y="443.03882"
           x="237.53 259.17499 279.875 293.69 317.85498 342.42499 363.125"
           style="font-size:45px;font-style:italic;font-variant:normal;writing-mode:lr-tb;fill:#8d1313;fill-opacity:1;fill-rule:nonzero;stroke:#8d1313;stroke-width:0.4420554;stroke-opacity:1;font-family:Trebuchet MS;-inkscape-font-specification:TrebuchetMS-Italic">Science</tspan>
      </text>
    </g>
  </g>
</svg>
